{
  "accessors": [
    {
      "bufferView": 1,
      "componentType": 5126,
      "count": 2182,
      "max": [
        1.0000003576278687,
        5.706153869628906,
        3.4895291328430176
      ],
      "min": [
        -5.220774173736572,
        -4.182109355926514,
        -3.4895291328430176
      ],
      "type": "VEC3"
    },
    {
      "bufferView": 1,
      "byteOffset": 26184,
      "componentType": 5126,
      "count": 2182,
      "max": [
        1.0,
        1.0,
        1.0
      ],
      "min": [
        -1.0,
        -1.0,
        -1.0
      ],
      "type": "VEC3"
    },
    {
      "bufferView": 0,
      "componentType": 5125,
      "count": 3354,
      "type": "SCALAR"
    },
    {
      "bufferView": 1,
      "byteOffset": 52368,
      "componentType": 5126,
      "count": 368,
      "max": [
        0.49770915508270264,
        5.1225996017456055,
        3.4228286743164063
      ],
      "min": [
        -5.01206636428833,
        -1.197579026222229,
        -3.4841084480285645
      ],
      "type": "VEC3"
    },
    {
      "bufferView": 1,
      "byteOffset": 56784,
      "componentType": 5126,
      "count": 368,
      "max": [
        1.0,
        1.0,
        1.0
      ],
      "min": [
        -1.0,
        -1.0,
        -1.0
      ],
      "type": "VEC3"
    },
    {
      "bufferView": 0,
      "byteOffset": 13416,
      "componentType": 5125,
      "count": 564,
      "type": "SCALAR"
    },
    {
      "bufferView": 1,
      "byteOffset": 61200,
      "componentType": 5126,
      "count": 212,
      "max": [
        0.07149040699005127,
        5.936488151550293,
        3.144611120223999
      ],
      "min": [
        -2.1797688007354736,
        -0.7019379734992981,
        -3.1446726322174072
      ],
      "type": "VEC3"
    },
    {
      "bufferView": 1,
      "byteOffset": 63744,
      "componentType": 5126,
      "count": 212,
      "max": [
        1.0,
        0.9988675713539124,
        0.9969704747200012
      ],
      "min": [
        -1.0,
        -1.0,
        -0.9969704151153564
      ],
      "type": "VEC3"
    },
    {
      "bufferView": 0,
      "byteOffset": 15672,
      "componentType": 5125,
      "count": 360,
      "type": "SCALAR"
    },
    {
      "bufferView": 1,
      "byteOffset": 66288,
      "componentType": 5126,
      "count": 296,
      "max": [
        -0.15539026260375977,
        4.190614223480225,
        2.762578010559082
      ],
      "min": [
        -5.115015506744385,
        -1.4415818452835083,
        -2.80666446685791
      ],
      "type": "VEC3"
    },
    {
      "bufferView": 1,
      "byteOffset": 69840,
      "componentType": 5126,
      "count": 296,
      "max": [
        1.0,
        0.9999998807907104,
        1.0
      ],
      "min": [
        -1.0,
        -0.9999998807907104,
        -1.0
      ],
      "type": "VEC3"
    },
    {
      "bufferView": 0,
      "byteOffset": 17112,
      "componentType": 5125,
      "count": 492,
      "type": "SCALAR"
    }
  ],
  "asset": {
    "extras": {
      "author": "Kolos Studios (https://sketchfab.com/KolosStudios)",
      "license": "CC-BY-4.0 (http://creativecommons.org/licenses/by/4.0/)",
      "source": "https://sketchfab.com/3d-models/low-poly-forklift-truck-81b895de490646de8c6fb1ba03099e08",
      "title": "Low poly Forklift Truck"
    },
    "generator": "Sketchfab-10.93.0",
    "version": "2.0"
  },
  "bufferViews": [
    {
      "buffer": 0,
      "byteLength": 19080,
      "name": "floatBufferViews",
      "target": 34963
    },
    {
      "buffer": 0,
      "byteLength": 73392,
      "byteOffset": 19080,
      "byteStride": 12,
      "name": "floatBufferViews",
      "target": 34962
    }
  ],
  "buffers": [
    {
      "byteLength": 92472,
      "uri": "scene.bin"
    }
  ],
  "materials": [
    {
      "doubleSided": true,
      "name": "Material.002",
      "pbrMetallicRoughness": {
        "baseColorFactor": [
          0.0549687,
          0.0549687,
          0.0549687,
          1.0
        ],
        "metallicFactor": 0.0,
        "roughnessFactor": 0.8239417257461427
      }
    },
    {
      "doubleSided": true,
      "name": "Material.003",
      "pbrMetallicRoughness": {
        "baseColorFactor": [
          0.147314,
          0.147314,
          0.147314,
          1.0
        ],
        "metallicFactor": 0.0,
        "roughnessFactor": 0.8239417257461427
      }
    },
    {
      "doubleSided": true,
      "name": "Material.014",
      "pbrMetallicRoughness": {
        "baseColorFactor": [
          1.0,
          0.63491,
          0.0455503,
          1.0
        ],
        "metallicFactor": 0.0,
        "roughnessFactor": 0.8239417257461427
      }
    },
    {
      "doubleSided": true,
      "name": "Material.006",
      "pbrMetallicRoughness": {
        "baseColorFactor": [
          0.318539,
          0.318539,
          0.318539,
          1.0
        ],
        "metallicFactor": 0.0,
        "roughnessFactor": 0.8239417257461427
      }
    }
  ],
  "meshes": [
    {
      "name": "Cylinder.002_Material.002_0",
      "primitives": [
        {
          "attributes": {
            "NORMAL": 1,
            "POSITION": 0
          },
          "indices": 2,
          "material": 0,
          "mode": 4
        }
      ]
    },
    {
      "name": "Cylinder.002_Material.003_0",
      "primitives": [
        {
          "attributes": {
            "NORMAL": 4,
            "POSITION": 3
          },
          "indices": 5,
          "material": 1,
          "mode": 4
        }
      ]
    },
    {
      "name": "Cylinder.002_Material.014_0",
      "primitives": [
        {
          "attributes": {
            "NORMAL": 7,
            "POSITION": 6
          },
          "indices": 8,
          "material": 2,
          "mode": 4
        }
      ]
    },
    {
      "name": "Cylinder.002_Material.006_0",
      "primitives": [
        {
          "attributes": {
            "NORMAL": 10,
            "POSITION": 9
          },
          "indices": 11,
          "material": 3,
          "mode": 4
        }
      ]
    }
  ],
  "nodes": [
    {
      "children": [
        1
      ],
      "matrix": [
        1.0,
        0.0,
        0.0,
        0.0,
        0.0,
        2.220446049250313e-16,
        -1.0,
        0.0,
        0.0,
        1.0,
        2.220446049250313e-16,
        0.0,
        0.0,
        0.0,
        0.0,
        1.0
      ],
      "name": "Sketchfab_model"
    },
    {
      "children": [
        2
      ],
      "matrix": [
        1.0,
        0.0,
        0.0,
        0.0,
        0.0,
        0.0,
        1.0,
        0.0,
        0.0,
        -1.0,
        0.0,
        0.0,
        0.0,
        0.0,
        0.0,
        1.0
      ],
      "name": "f99b9a425696449da75d8f40d2c644ff.fbx"
    },
    {
      "children": [
        3
      ],
      "name": "RootNode"
    },
    {
      "children": [
        4,
        5,
        6,
        7
      ],
      "matrix": [
        1.725534271474577e-06,
        -22.855394363403246,
        6.81143590057502e-07,
        0.0,
        -6.448191657512619e-06,
        -6.811440747120766e-07,
        -22.855394363402397,
        0.0,
        12.123712539672333,
        9.153147304606404e-07,
        -3.4204626449790703e-06,
        0.0,
        5424.89013671875,
        25.110912322998047,
        323.8753662109375,
        1.0
      ],
      "name": "Cylinder.002"
    },
    {
      "mesh": 0,
      "name": "Cylinder.002_Material.002_0"
    },
    {
      "mesh": 1,
      "name": "Cylinder.002_Material.003_0"
    },
    {
      "mesh": 2,
      "name": "Cylinder.002_Material.014_0"
    },
    {
      "mesh": 3,
      "name": "Cylinder.002_Material.006_0"
    }
  ],
  "scene": 0,
  "scenes": [
    {
      "name": "Sketchfab_Scene",
      "nodes": [
        0
      ]
    }
  ]
}
