{
  "accessors": [
    {
      "bufferView": 2,
      "componentType": 5126,
      "count": 4612,
      "max": [
        8.901762008666992,
        8.71874713897705,
        169.77188110351563
      ],
      "min": [
        -8.690509796142578,
        -11.66593074798584,
        151.78273010253906
      ],
      "type": "VEC3"
    },
    {
      "bufferView": 2,
      "byteOffset": 55344,
      "componentType": 5126,
      "count": 4612,
      "max": [
        0.9998289942741394,
        0.9999745488166809,
        0.9997068643569946
      ],
      "min": [
        -0.9998289942741394,
        -0.9972590208053589,
        -0.9195943474769592
      ],
      "type": "VEC3"
    },
    {
      "bufferView": 1,
      "componentType": 5126,
      "count": 4612,
      "max": [
        0.9854140281677246,
        0.9995539784431458
      ],
      "min": [
        0.25051000714302063,
        0.0007880000048317015
      ],
      "type": "VEC2"
    },
    {
      "bufferView": 0,
      "componentType": 5125,
      "count": 13542,
      "type": "SCALAR"
    },
    {
      "bufferView": 2,
      "byteOffset": 110688,
      "componentType": 5126,
      "count": 876,
      "max": [
        17.997596740722656,
        13.966015815734863,
        98.85723114013672
      ],
      "min": [
        -18.001544952392578,
        -12.87777042388916,
        2.011565923690796
      ],
      "type": "VEC3"
    },
    {
      "bufferView": 2,
      "byteOffset": 121200,
      "componentType": 5126,
      "count": 876,
      "max": [
        0.9994096159934998,
        0.9994964599609375,
        0.9995773434638977
      ],
      "min": [
        -0.9997023344039917,
        -0.9990143775939941,
        -0.9965404868125916
      ],
      "type": "VEC3"
    },
    {
      "bufferView": 3,
      "componentType": 5126,
      "count": 876,
      "max": [
        0.9999889135360718,
        0.9980762600898743,
        0.8197250962257385,
        1.0
      ],
      "min": [
        -0.9999804496765137,
        -0.9998742938041687,
        -0.5524178147315979,
        1.0
      ],
      "type": "VEC4"
    },
    {
      "bufferView": 1,
      "byteOffset": 36896,
      "componentType": 5126,
      "count": 876,
      "max": [
        0.9899359941482544,
        0.9853670001029968
      ],
      "min": [
        0.008810999803245068,
        0.011648000217974186
      ],
      "type": "VEC2"
    },
    {
      "bufferView": 0,
      "byteOffset": 54168,
      "componentType": 5125,
      "count": 4596,
      "type": "SCALAR"
    },
    {
      "bufferView": 2,
      "byteOffset": 131712,
      "componentType": 5126,
      "count": 1732,
      "max": [
        68.13080596923828,
        11.91517162322998,
        150.50643920898438
      ],
      "min": [
        -68.10941314697266,
        -15.150542259216309,
        76.44402313232422
      ],
      "type": "VEC3"
    },
    {
      "bufferView": 2,
      "byteOffset": 152496,
      "componentType": 5126,
      "count": 1732,
      "max": [
        0.9992564916610718,
        0.999934732913971,
        0.9989716410636902
      ],
      "min": [
        -0.9992761015892029,
        -0.9994747638702393,
        -0.9989696145057678
      ],
      "type": "VEC3"
    },
    {
      "bufferView": 1,
      "byteOffset": 43904,
      "componentType": 5126,
      "count": 1732,
      "max": [
        0.9953590035438538,
        0.993910014629364
      ],
      "min": [
        0.01232799980789423,
        0.008790000341832638
      ],
      "type": "VEC2"
    },
    {
      "bufferView": 0,
      "byteOffset": 72552,
      "componentType": 5125,
      "count": 8712,
      "type": "SCALAR"
    },
    {
      "bufferView": 2,
      "byteOffset": 173280,
      "componentType": 5126,
      "count": 1328,
      "max": [
        14.88874626159668,
        12.907452583312988,
        44.453975677490234
      ],
      "min": [
        -14.89300537109375,
        -17.732484817504883,
        -2.409614086151123
      ],
      "type": "VEC3"
    },
    {
      "bufferView": 2,
      "byteOffset": 189216,
      "componentType": 5126,
      "count": 1328,
      "max": [
        0.9999211430549622,
        0.9998843669891357,
        0.999958872795105
      ],
      "min": [
        -0.9999211430549622,
        -0.9974315166473389,
        -0.9981741309165955
      ],
      "type": "VEC3"
    },
    {
      "bufferView": 1,
      "byteOffset": 57760,
      "componentType": 5126,
      "count": 1328,
      "max": [
        0.9845280051231384,
        0.9856899976730347
      ],
      "min": [
        0.013674999587237835,
        0.02324100024998188
      ],
      "type": "VEC2"
    },
    {
      "bufferView": 0,
      "byteOffset": 107400,
      "componentType": 5125,
      "count": 6612,
      "type": "SCALAR"
    },
    {
      "bufferView": 2,
      "byteOffset": 205152,
      "componentType": 5126,
      "count": 1200,
      "max": [
        10.578055381774902,
        9.36669921875,
        173.21595764160156
      ],
      "min": [
        -10.574989318847656,
        -16.697059631347656,
        155.49755859375
      ],
      "type": "VEC3"
    },
    {
      "bufferView": 2,
      "byteOffset": 219552,
      "componentType": 5126,
      "count": 1200,
      "max": [
        1.0,
        0.9994028806686401,
        0.9997898936271667
      ],
      "min": [
        -1.0,
        -0.9963321089744568,
        -0.9990346431732178
      ],
      "type": "VEC3"
    },
    {
      "bufferView": 1,
      "byteOffset": 68384,
      "componentType": 5126,
      "count": 1200,
      "max": [
        0.9874950051307678,
        0.9883000254631042
      ],
      "min": [
        0.004000000189989805,
        0.00570000009611249
      ],
      "type": "VEC2"
    },
    {
      "bufferView": 0,
      "byteOffset": 133848,
      "componentType": 5125,
      "count": 5094,
      "type": "SCALAR"
    },
    {
      "bufferView": 2,
      "byteOffset": 233952,
      "componentType": 5126,
      "count": 7512,
      "max": [
        83.115234375,
        8.928717613220215,
        165.28517150878906
      ],
      "min": [
        -83.1134262084961,
        -13.886480331420898,
        128.13011169433594
      ],
      "type": "VEC3"
    },
    {
      "bufferView": 2,
      "byteOffset": 324096,
      "componentType": 5126,
      "count": 7512,
      "max": [
        0.9997684955596924,
        0.9999021291732788,
        0.9998287558555603
      ],
      "min": [
        -0.9997684955596924,
        -0.9999762177467346,
        -0.9999902248382568
      ],
      "type": "VEC3"
    },
    {
      "bufferView": 3,
      "byteOffset": 14016,
      "componentType": 5126,
      "count": 7512,
      "max": [
        1.0,
        0.9993533492088318,
        0.9934131503105164,
        1.0
      ],
      "min": [
        -0.9999920725822449,
        -0.9999523758888245,
        -0.996751606464386,
        -1.0
      ],
      "type": "VEC4"
    },
    {
      "bufferView": 1,
      "byteOffset": 77984,
      "componentType": 5126,
      "count": 7512,
      "max": [
        0.9924700260162354,
        0.9982979893684387
      ],
      "min": [
        0.004989999812096357,
        0.326339989900589
      ],
      "type": "VEC2"
    },
    {
      "bufferView": 0,
      "byteOffset": 154224,
      "componentType": 5125,
      "count": 39300,
      "type": "SCALAR"
    }
  ],
  "asset": {
    "extras": {
      "author": "muhammaduzairhamdani (https://sketchfab.com/muhammaduzairhamdani)",
      "license": "CC-BY-4.0 (http://creativecommons.org/licenses/by/4.0/)",
      "source": "https://sketchfab.com/3d-models/worker-fuse-bac5e40c04a44b5891ac92500894b33f",
      "title": "Worker Fuse"
    },
    "generator": "Sketchfab-11.73.0",
    "version": "2.0"
  },
  "bufferViews": [
    {
      "buffer": 0,
      "byteLength": 311424,
      "name": "floatBufferViews",
      "target": 34963
    },
    {
      "buffer": 0,
      "byteLength": 138080,
      "byteOffset": 311424,
      "byteStride": 8,
      "name": "floatBufferViews",
      "target": 34962
    },
    {
      "buffer": 0,
      "byteLength": 414240,
      "byteOffset": 449504,
      "byteStride": 12,
      "name": "floatBufferViews",
      "target": 34962
    },
    {
      "buffer": 0,
      "byteLength": 134208,
      "byteOffset": 863744,
      "byteStride": 16,
      "name": "floatBufferViews",
      "target": 34962
    }
  ],
  "buffers": [
    {
      "byteLength": 997952,
      "uri": "scene.bin"
    }
  ],
  "images": [
    {
      "uri": "textures/Body_baseColor.png"
    },
    {
      "uri": "textures/Body_normal.png"
    },
    {
      "uri": "textures/Bottom_baseColor.png"
    },
    {
      "uri": "textures/Hair_baseColor.png"
    },
    {
      "uri": "textures/material_baseColor.png"
    },
    {
      "uri": "textures/Shoes_baseColor.png"
    },
    {
      "uri": "textures/material_5_baseColor.png"
    }
  ],
  "materials": [
    {
      "alphaMode": "BLEND",
      "doubleSided": true,
      "name": "Body",
      "normalTexture": {
        "index": 1
      },
      "pbrMetallicRoughness": {
        "baseColorTexture": {
          "index": 0
        },
        "metallicFactor": 0.0,
        "roughnessFactor": 0.6
      }
    },
    {
      "doubleSided": true,
      "name": "Bottom",
      "normalTexture": {
        "index": 1
      },
      "pbrMetallicRoughness": {
        "baseColorTexture": {
          "index": 2
        },
        "metallicFactor": 0.0,
        "roughnessFactor": 0.6
      }
    },
    {
      "alphaMode": "BLEND",
      "doubleSided": true,
      "name": "Hair",
      "pbrMetallicRoughness": {
        "baseColorTexture": {
          "index": 3
        },
        "metallicFactor": 0.0,
        "roughnessFactor": 0.6
      }
    },
    {
      "doubleSided": true,
      "name": "material",
      "pbrMetallicRoughness": {
        "baseColorTexture": {
          "index": 4
        },
        "metallicFactor": 0.0,
        "roughnessFactor": 0.6
      }
    },
    {
      "doubleSided": true,
      "name": "Shoes",
      "pbrMetallicRoughness": {
        "baseColorTexture": {
          "index": 5
        },
        "metallicFactor": 0.0,
        "roughnessFactor": 0.6
      }
    },
    {
      "doubleSided": true,
      "name": "material_5",
      "pbrMetallicRoughness": {
        "baseColorTexture": {
          "index": 6
        },
        "metallicFactor": 0.0,
        "roughnessFactor": 0.6
      }
    }
  ],
  "meshes": [
    {
      "name": "Object_0",
      "primitives": [
        {
          "attributes": {
            "NORMAL": 1,
            "POSITION": 0,
            "TEXCOORD_0": 2
          },
          "indices": 3,
          "material": 2,
          "mode": 4
        }
      ]
    },
    {
      "name": "Object_1",
      "primitives": [
        {
          "attributes": {
            "NORMAL": 5,
            "POSITION": 4,
            "TANGENT": 6,
            "TEXCOORD_0": 7
          },
          "indices": 8,
          "material": 1,
          "mode": 4
        }
      ]
    },
    {
      "name": "Object_2",
      "primitives": [
        {
          "attributes": {
            "NORMAL": 10,
            "POSITION": 9,
            "TEXCOORD_0": 11
          },
          "indices": 12,
          "material": 5,
          "mode": 4
        }
      ]
    },
    {
      "name": "Object_3",
      "primitives": [
        {
          "attributes": {
            "NORMAL": 14,
            "POSITION": 13,
            "TEXCOORD_0": 15
          },
          "indices": 16,
          "material": 4,
          "mode": 4
        }
      ]
    },
    {
      "name": "Object_4",
      "primitives": [
        {
          "attributes": {
            "NORMAL": 18,
            "POSITION": 17,
            "TEXCOORD_0": 19
          },
          "indices": 20,
          "material": 3,
          "mode": 4
        }
      ]
    },
    {
      "name": "Object_5",
      "primitives": [
        {
          "attributes": {
            "NORMAL": 22,
            "POSITION": 21,
            "TANGENT": 23,
            "TEXCOORD_0": 24
          },
          "indices": 25,
          "material": 0,
          "mode": 4
        }
      ]
    }
  ],
  "nodes": [
    {
      "children": [
        1
      ],
      "matrix": [
        8.200492858886719,
        0.0,
        0.0,
        0.0,
        0.0,
        1.820875197042042e-15,
        -8.200492858886719,
        0.0,
        0.0,
        8.200492858886719,
        1.820875197042042e-15,
        0.0,
        0.0,
        0.0,
        0.0,
        1.0
      ],
      "name": "Sketchfab_model"
    },
    {
      "children": [
        2,
        3,
        4,
        5,
        6,
        7
      ],
      "name": "Worker Fuse.obj.cleaner.materialmerger.gles"
    },
    {
      "mesh": 0,
      "name": "Object_2"
    },
    {
      "mesh": 1,
      "name": "Object_3"
    },
    {
      "mesh": 2,
      "name": "Object_4"
    },
    {
      "mesh": 3,
      "name": "Object_5"
    },
    {
      "mesh": 4,
      "name": "Object_6"
    },
    {
      "mesh": 5,
      "name": "Object_7"
    }
  ],
  "samplers": [
    {
      "magFilter": 9729,
      "minFilter": 9987,
      "wrapS": 10497,
      "wrapT": 10497
    }
  ],
  "scene": 0,
  "scenes": [
    {
      "name": "Sketchfab_Scene",
      "nodes": [
        0
      ]
    }
  ],
  "textures": [
    {
      "sampler": 0,
      "source": 0
    },
    {
      "sampler": 0,
      "source": 1
    },
    {
      "sampler": 0,
      "source": 2
    },
    {
      "sampler": 0,
      "source": 3
    },
    {
      "sampler": 0,
      "source": 4
    },
    {
      "sampler": 0,
      "source": 5
    },
    {
      "sampler": 0,
      "source": 6
    }
  ]
}
